<?xml version="1.0" standalone="no"?>
<!DOCTYPE svg PUBLIC "-//W3C//DTD SVG 1.1//EN" "http://www.w3.org/Graphics/SVG/1.1/DTD/svg11.dtd" >
<svg xmlns="http://www.w3.org/2000/svg" xmlns:xlink="http://www.w3.org/1999/xlink" version="1.1">
<metadata></metadata>
<defs>
<font id="centranubemedium" horiz-adv-x="568" >
<font-face units-per-em="1000" ascent="800" descent="-200" />
<missing-glyph horiz-adv-x="239" />
<glyph horiz-adv-x="0" />
<glyph unicode="&#xd;" horiz-adv-x="239" />
<glyph unicode=" "  horiz-adv-x="239" />
<glyph unicode="&#x09;" horiz-adv-x="239" />
<glyph unicode="&#xa0;" horiz-adv-x="239" />
<glyph unicode="!" horiz-adv-x="280" d="M78 700h124l-10 -492h-104zM66 62q0 30 21 51.5t53 21.5t53 -21.5t21 -51.5t-21 -51.5t-53 -21.5t-53 21.5t-21 51.5z" />
<glyph unicode="&#x22;" horiz-adv-x="379" d="M42 700h117l-13 -283h-91zM220 700h117l-13 -283h-91z" />
<glyph unicode="#" horiz-adv-x="663" d="M627 507v-85h-113l-21 -152h103v-85h-115l-26 -185h-97l26 185h-151l-26 -185h-96l26 185h-101v85h113l21 152h-103v85h115l26 180h96l-26 -180h151l26 180h97l-26 -180h101zM396 270l21 152h-151l-21 -152h151z" />
<glyph unicode="$" horiz-adv-x="534" d="M315 680q117 -23 165 -140l-97 -50q-25 58 -68 79v-171l26 -10q154 -58 154 -186q0 -80 -50.5 -133t-129.5 -65v-100h-83v100q-70 10 -121.5 52t-75.5 110l100 48q29 -77 97 -100v195l-15 6q-77 31 -116 74t-39 109q0 75 47.5 125t122.5 60v93h83v-96zM178 505 q0 -45 54 -73v142q-54 -18 -54 -69zM379 195q0 55 -64 83v-165q64 21 64 82z" />
<glyph unicode="%" horiz-adv-x="820" d="M371 533q0 -69 -49 -116t-119 -47t-119 47t-49 116q0 68 49 115t119 47t119 -47t49 -115zM606 687h117l-508 -687h-117zM203 456q32 0 53.5 22t21.5 55q0 32 -21.5 54t-53.5 22t-53.5 -22t-21.5 -54q0 -33 21.5 -55t53.5 -22zM617 -8q-70 0 -119 47t-49 115q0 69 49 116 t119 47t119 -47t49 -116q0 -68 -49 -115t-119 -47zM617 78q32 0 53.5 22t21.5 54q0 33 -21.5 55t-53.5 22t-53.5 -22t-21.5 -55q0 -32 21.5 -54t53.5 -22z" />
<glyph unicode="&#x26;" horiz-adv-x="723" d="M468 95q-98 -107 -227 -107q-89 0 -146 52.5t-57 134.5q0 117 137 209q-74 75 -74 157q0 73 52.5 122.5t131.5 49.5q75 0 125.5 -47t50.5 -117q0 -51 -27 -92.5t-90 -86.5l120 -120l116 135l81 -67l-120 -141l178 -177h-157zM211 544q0 -44 61 -105q83 55 83 108 q0 29 -21 49.5t-52 20.5q-29 0 -50 -21.5t-21 -51.5zM254 93q70 0 135 75l1 1l-142 143q-94 -62 -94 -129q0 -38 28.5 -64t71.5 -26z" />
<glyph unicode="'" horiz-adv-x="201" d="M42 700h117l-13 -283h-91z" />
<glyph unicode="(" horiz-adv-x="336" d="M50 294q0 130 42.5 248.5t120.5 210.5h115q-164 -211 -164 -459q0 -246 164 -459h-115q-78 92 -120.5 210.5t-42.5 248.5z" />
<glyph unicode=")" horiz-adv-x="336" d="M285 294q0 -130 -42 -249t-120 -210h-115q163 210 163 459q0 248 -163 459h115q78 -91 120 -210t42 -249z" />
<glyph unicode="*" horiz-adv-x="429" d="M148 364l-74 55l68 93l-110 35l27 87l110 -37l-1 116h93l-1 -116l110 37l27 -87l-110 -35l69 -93l-75 -55l-67 94z" />
<glyph unicode="+" horiz-adv-x="600" d="M252 382v185h96v-185h182v-97h-182v-187h-96v187h-182v97h182z" />
<glyph unicode="," horiz-adv-x="268" d="M121 0h-1q-26 0 -43.5 18.5t-17.5 44.5q0 32 22 53t53 21q32 0 53.5 -21t21.5 -53q0 -33 -21 -71l-50 -100h-73z" />
<glyph unicode="-" horiz-adv-x="424" d="M367 317v-104h-310v104h310z" />
<glyph unicode="." horiz-adv-x="268" d="M59 63q0 31 21.5 52.5t53.5 21.5t53.5 -21.5t21.5 -52.5t-21.5 -52.5t-53.5 -21.5t-53.5 21.5t-21.5 52.5z" />
<glyph unicode="/" horiz-adv-x="471" d="M-14 -100l368 865h115l-368 -865h-115z" />
<glyph unicode="0" horiz-adv-x="670" d="M620 344q0 -149 -75 -252.5t-210 -103.5t-210 103.5t-75 252.5q0 96 31 175t97 129.5t157 50.5t157 -50.5t97 -129.5t31 -175zM501 344q0 102 -42.5 173t-123.5 71t-123.5 -71t-42.5 -173t42.5 -173.5t123.5 -71.5t123.5 71.5t42.5 173.5z" />
<glyph unicode="1" horiz-adv-x="358" d="M157 577h-121v110h239v-687h-118v577z" />
<glyph unicode="2" horiz-adv-x="556" d="M277 699q101 0 167 -61t66 -155q0 -61 -31.5 -114t-104.5 -118l-164 -144h307v-107h-476v95l268 241q82 74 82 140q0 48 -33 80t-81 32q-52 0 -84.5 -38.5t-32.5 -96.5h-116q0 110 64 178t169 68z" />
<glyph unicode="3" horiz-adv-x="567" d="M281 406q42 0 72 28t30 66q0 39 -28 65t-73 26q-47 0 -77 -31.5t-32 -80.5h-114q2 100 64 160t161 60q94 0 155 -52.5t61 -133.5q0 -99 -89 -147q56 -20 87.5 -64t31.5 -102q0 -93 -68.5 -152.5t-174.5 -59.5q-110 0 -175.5 63t-67.5 171h115q4 -54 40.5 -89.5 t90.5 -35.5t87.5 29.5t33.5 79.5q0 47 -36.5 76t-93.5 29h-34v95h34z" />
<glyph unicode="4" horiz-adv-x="602" d="M342 686h140v-435h96v-100h-96v-151h-115v151h-343v84zM367 551l-212 -300h212v300z" />
<glyph unicode="5" horiz-adv-x="574" d="M109 687h381v-105h-290l-23 -166q49 49 137 49q98 0 161.5 -66.5t63.5 -161.5q0 -106 -72 -177.5t-177 -71.5q-108 0 -177 61.5t-71 158.5h116q5 -49 40 -80t91 -31t93.5 38.5t37.5 95.5t-38 95t-95 38q-74 0 -121 -66l-107 22z" />
<glyph unicode="6" horiz-adv-x="590" d="M552 236q0 -105 -73.5 -176.5t-180.5 -71.5q-109 0 -182 71t-73 176q0 92 73 205l161 247h138l-163 -237q25 19 69 19q99 0 165 -68t66 -165zM433 231q0 56 -39.5 95t-95.5 39q-57 0 -96.5 -38t-39.5 -95q0 -55 39 -94t96 -39t96.5 39t39.5 93z" />
<glyph unicode="7" horiz-adv-x="527" d="M88 0l275 579h-330v107h466v-87l-281 -599h-130z" />
<glyph unicode="8" horiz-adv-x="566" d="M283 699q90 0 154 -52.5t64 -134.5q0 -50 -26 -87.5t-66 -54.5q48 -18 84 -63t36 -108q0 -95 -72.5 -153t-173.5 -58t-173.5 58t-72.5 153q0 63 35.5 108t83.5 63q-39 17 -65 55t-26 87q0 82 64 134.5t154 52.5zM283 598q-44 0 -75.5 -26.5t-31.5 -66.5q0 -41 31.5 -67 t75.5 -26t75.5 26t31.5 67q0 40 -31.5 66.5t-75.5 26.5zM412 204q0 49 -37 80t-92 31t-92.5 -31t-37.5 -80q0 -50 37.5 -81.5t92.5 -31.5t92 31.5t37 81.5z" />
<glyph unicode="9" horiz-adv-x="590" d="M38 451q0 105 73.5 176.5t180.5 71.5q109 0 182 -71t73 -176q0 -92 -73 -205l-161 -247h-138l163 237q-25 -19 -69 -19q-99 0 -165 68t-66 165zM157 456q0 -57 39 -95.5t96 -38.5t96.5 38t39.5 95q0 55 -39 94t-96 39t-96.5 -39t-39.5 -93z" />
<glyph unicode=":" horiz-adv-x="268" d="M59 411q0 31 21.5 52.5t53.5 21.5t53.5 -21.5t21.5 -52.5t-21.5 -52.5t-53.5 -21.5t-53.5 21.5t-21.5 52.5zM59 63q0 31 21.5 52.5t53.5 21.5t53.5 -21.5t21.5 -52.5t-21.5 -52.5t-53.5 -21.5t-53.5 21.5t-21.5 52.5z" />
<glyph unicode=";" horiz-adv-x="268" d="M59 411q0 31 21.5 52.5t53.5 21.5t53.5 -21.5t21.5 -52.5t-21.5 -52.5t-53.5 -21.5t-53.5 21.5t-21.5 52.5zM121 0h-1q-26 0 -43.5 18.5t-17.5 44.5q0 32 22 53t53 21q32 0 53.5 -21t21.5 -53q0 -33 -21 -71l-50 -100h-73z" />
<glyph unicode="&#x3c;" horiz-adv-x="600" d="M514 590v-115l-304 -141l304 -141v-117l-428 205v104z" />
<glyph unicode="=" horiz-adv-x="600" d="M530 483v-96h-460v96h460zM530 280v-96h-460v96h460z" />
<glyph unicode="&#x3e;" horiz-adv-x="600" d="M86 76v115l304 141l-304 141v117l428 -205v-104z" />
<glyph unicode="?" horiz-adv-x="537" d="M499 512q0 -94 -85 -168q-3 -3 -22 -18.5t-25.5 -22t-19 -20t-17 -26t-4.5 -25.5v-24h-117v35q0 74 96 146q75 57 75 114q0 42 -30 70t-77 28q-48 0 -79.5 -33t-32.5 -83h-116q0 99 64.5 163.5t164.5 64.5q97 0 161 -57t64 -144zM197 62q0 30 21 51.5t53 21.5t53 -21.5 t21 -51.5t-21 -51.5t-53 -21.5t-53 21.5t-21 51.5z" />
<glyph unicode="@" horiz-adv-x="863" d="M642 68q-44 0 -68.5 18.5t-31.5 45.5q-45 -66 -135 -66q-72 0 -118.5 51.5t-46.5 132.5q0 84 53.5 143t130.5 59q88 0 122 -62l6 51h84l-29 -238q-7 -57 34 -57q38 0 65 47.5t27 117.5q0 112 -78.5 184t-195.5 72q-137 0 -231.5 -88.5t-94.5 -224.5q0 -138 87.5 -221 t218.5 -83q133 0 226 67l43 -74q-47 -35 -120.5 -56t-148.5 -21q-170 0 -284.5 104.5t-114.5 281.5q0 174 122.5 286.5t298.5 112.5q153 0 258.5 -96.5t105.5 -237.5q0 -116 -55.5 -182.5t-129.5 -66.5zM423 146q43 0 75.5 36.5t32.5 87.5q0 44 -25.5 73t-68.5 29 q-44 0 -75 -35.5t-31 -85.5q0 -46 26.5 -75.5t65.5 -29.5z" />
<glyph unicode="A" horiz-adv-x="692" d="M682 0h-126l-71 177h-282l-70 -177h-123l285 700h102zM447 282l-103 260l-102 -260h205z" />
<glyph unicode="B" horiz-adv-x="622" d="M319 700q98 0 159 -50.5t61 -136.5q0 -98 -83 -140q125 -42 125 -171q0 -93 -66 -147.5t-178 -54.5h-255v700h237zM311 411q50 0 80.5 25t30.5 69t-30.5 68.5t-80.5 24.5h-111v-187h111zM332 103q59 0 93.5 27.5t34.5 77.5q0 48 -35.5 76t-93.5 28h-131v-209h132z" />
<glyph unicode="C" horiz-adv-x="643" d="M46 350q0 153 104.5 258t256.5 105q99 0 191 -57v-129q-90 69 -190 69q-102 0 -170 -70.5t-68 -175.5q0 -103 68.5 -174t169.5 -71q96 0 192 67v-129q-90 -55 -194 -55q-152 0 -256 104.5t-104 257.5z" />
<glyph unicode="D" horiz-adv-x="709" d="M663 350q0 -147 -102.5 -248.5t-249.5 -101.5h-229v700h229q147 0 249.5 -101.5t102.5 -248.5zM540 350q0 100 -66.5 169t-165.5 69h-106v-476h106q99 0 165.5 69t66.5 169z" />
<glyph unicode="E" horiz-adv-x="535" d="M482 700v-109h-280v-178h258v-106h-258v-198h282v-109h-402v700h400z" />
<glyph unicode="F" horiz-adv-x="514" d="M82 0v700h391v-109h-271v-178h253v-109h-253v-304h-120z" />
<glyph unicode="G" horiz-adv-x="789" d="M608 480q-29 57 -81.5 88t-119.5 31q-100 0 -169.5 -72.5t-69.5 -176.5q0 -103 69.5 -176t170.5 -73q82 0 140 48.5t70 124.5h-228v105h356v-45q0 -148 -95.5 -247t-243.5 -99q-150 0 -255.5 106t-105.5 256t106.5 256.5t255.5 106.5q101 0 183 -48t124 -131z" />
<glyph unicode="H" horiz-adv-x="732" d="M202 700v-283h328v283h120v-700h-120v303h-328v-303h-120v700h120z" />
<glyph unicode="I" horiz-adv-x="284" d="M202 0h-120v700h120v-700z" />
<glyph unicode="J" horiz-adv-x="517" d="M444 217q0 -106 -58.5 -167.5t-158.5 -61.5q-75 0 -131.5 38t-82.5 107l102 56q38 -89 112 -89q47 0 72 30.5t25 87.5v482h120v-483z" />
<glyph unicode="K" horiz-adv-x="644" d="M466 700h146l-293 -320l316 -380h-151l-244 299l-38 -42v-257h-120v700h120v-292z" />
<glyph unicode="L" horiz-adv-x="469" d="M202 112h246v-112h-366v700h120v-588z" />
<glyph unicode="M" horiz-adv-x="944" d="M862 0h-117v498l-234 -498h-79l-233 497v-497h-117v700h146l246 -531l246 531h142v-700z" />
<glyph unicode="N" horiz-adv-x="774" d="M692 0h-117l-377 514v-514h-116v700h122l372 -513v513h116v-700z" />
<glyph unicode="O" horiz-adv-x="818" d="M46 350q0 151 106 257t257 106t257 -106t106 -257q0 -150 -106 -256t-257 -106t-257 106t-106 256zM169 350q0 -102 69.5 -174t170.5 -72t170.5 72t69.5 174q0 103 -69.5 175t-170.5 72t-170.5 -72t-69.5 -175z" />
<glyph unicode="P" horiz-adv-x="575" d="M309 700q110 0 176 -57t66 -157t-66 -156.5t-176 -56.5h-107v-273h-120v700h227zM311 380q54 0 87 28t33 78t-33 78t-87 28h-109v-212h109z" />
<glyph unicode="Q" horiz-adv-x="818" d="M617 53q-95 -65 -208 -65q-151 0 -257 106t-106 256q0 151 106 257t257 106t257 -106t106 -257q0 -123 -78 -225l72 -61l-69 -80zM167 350q0 -103 70 -175.5t172 -72.5q61 0 116 30l-71 61l69 78l81 -69q47 66 47 148q0 104 -70 176.5t-172 72.5t-172 -72.5t-70 -176.5z " />
<glyph unicode="R" horiz-adv-x="605" d="M82 0v700h219q108 0 174 -56.5t66 -156.5q0 -76 -43 -127.5t-115 -72.5l206 -287h-141l-193 277h-54v-277h-119zM301 378q54 0 87 29t33 79t-33 78t-87 28h-100v-214h100z" />
<glyph unicode="S" horiz-adv-x="556" d="M139 213q19 -52 57 -82t90 -30q47 0 79 24.5t32 67.5q0 66 -88 97l-83 30q-164 58 -164 194q0 89 61.5 144t155.5 55q76 -1 136 -42t89 -113l-103 -52q-38 95 -121 95q-42 0 -69 -22t-27 -58q0 -31 21 -51.5t66 -38.5l86 -33q163 -64 163 -197q0 -97 -68 -155t-168 -58 q-89 0 -155.5 46t-95.5 129z" />
<glyph unicode="T" horiz-adv-x="547" d="M528 700v-111h-194v-589h-121v589h-194v111h509z" />
<glyph unicode="U" horiz-adv-x="694" d="M347 -12q-128 0 -201 79t-73 211v422h120v-417q0 -83 40 -131t114 -48t114 48t40 131v417h120v-422q0 -132 -73 -211t-201 -79z" />
<glyph unicode="V" horiz-adv-x="652" d="M9 700h127l192 -511l191 511h124l-271 -700h-92z" />
<glyph unicode="W" horiz-adv-x="1012" d="M11 700h124l161 -499l167 499h88l166 -499l162 499h122l-239 -700h-90l-167 500l-166 -500h-90z" />
<glyph unicode="X" horiz-adv-x="642" d="M321 454l162 246h135l-227 -339l243 -361h-139l-175 268l-177 -268h-135l242 360l-227 340h138z" />
<glyph unicode="Y" horiz-adv-x="641" d="M261 0v308l-253 392h138l176 -281l176 281h135l-252 -392v-308h-120z" />
<glyph unicode="Z" horiz-adv-x="611" d="M578 108v-108h-546v78l378 514h-354v108h518v-78l-378 -514h382z" />
<glyph unicode="[" horiz-adv-x="341" d="M318 753v-93h-137v-732h137v-93h-246v918h246z" />
<glyph unicode="\" horiz-adv-x="471" d="M117 765l368 -865h-115l-368 865h115z" />
<glyph unicode="]" horiz-adv-x="341" d="M23 -165v93h137v732h-137v93h246v-918h-246z" />
<glyph unicode="^" horiz-adv-x="477" d="M334 393l-96 191l-96 -191h-108l159 307h91l159 -307h-109z" />
<glyph unicode="_" horiz-adv-x="502" d="M486 -42v-92h-470v92h470z" />
<glyph unicode="`" horiz-adv-x="500" d="M117 718h127l95 -143h-101z" />
<glyph unicode="a" horiz-adv-x="527" d="M41 130q0 134 174 159l133 17v21q0 37 -23.5 58.5t-63.5 21.5q-74 0 -97 -74l-106 27q18 66 73 104t130 38q96 0 148 -48t52 -135v-319h-108l-1 60q-51 -72 -153 -72q-70 0 -114 40t-44 102zM156 138q0 -26 19.5 -41.5t50.5 -15.5q54 0 88.5 31t34.5 80v28l-111 -15 q-82 -10 -82 -67z" />
<glyph unicode="b" horiz-adv-x="632" d="M72 0v700h115v-280q27 38 71 60t95 22q102 0 170.5 -73.5t68.5 -183.5q0 -108 -69 -182.5t-170 -74.5q-110 0 -166 79v-67h-115zM476 245q0 63 -42.5 107.5t-104.5 44.5t-104.5 -44.5t-42.5 -107.5t42.5 -107.5t104.5 -44.5t104.5 44.5t42.5 107.5z" />
<glyph unicode="c" horiz-adv-x="472" d="M40 245q0 111 73 184t186 73q72 0 131 -35v-115q-59 44 -121 44q-65 0 -108.5 -43.5t-43.5 -107.5t43 -107.5t109 -43.5q59 0 123 44v-115q-62 -35 -134 -35q-114 0 -186 72.5t-72 184.5z" />
<glyph unicode="d" horiz-adv-x="632" d="M445 70q-27 -38 -71 -60t-95 -22q-102 0 -170.5 73.5t-68.5 183.5q0 108 69 182.5t170 74.5q110 0 166 -79v277h115v-700h-115v70zM156 245q0 -63 42.5 -107.5t104.5 -44.5t104.5 44.5t42.5 107.5t-42.5 107.5t-104.5 44.5t-104.5 -44.5t-42.5 -107.5z" />
<glyph unicode="e" d="M516 115q-32 -59 -88.5 -93t-132.5 -34q-112 0 -183.5 72t-71.5 185q0 110 71.5 183.5t177.5 73.5q107 0 175.5 -73t68.5 -184q0 -21 -1 -35h-377q4 -53 45 -88.5t96 -35.5q45 0 73 19t52 55zM418 294q-6 49 -42 81t-89 32q-50 0 -87.5 -34.5t-43.5 -78.5h262z" />
<glyph unicode="f" horiz-adv-x="363" d="M343 490v-98h-132v-392h-116v392h-73v98h73v29q0 95 51 147t136 52q45 0 75 -14v-102q-26 14 -58 14q-88 0 -88 -96v-30h132z" />
<glyph unicode="g" horiz-adv-x="622" d="M436 84q-25 -36 -68 -57.5t-93 -21.5q-100 0 -167.5 71t-67.5 176q0 106 67.5 178t167.5 72q51 0 93.5 -21t67.5 -57v66h114v-460q0 -115 -68.5 -185t-187.5 -70q-81 0 -143 34t-94 95l92 58q48 -86 145 -86q66 0 104 40.5t38 112.5v55zM441 252q0 61 -41 103.5 t-101 42.5t-101 -42.5t-41 -103.5q0 -62 41 -104.5t101 -42.5t101 42.5t41 104.5z" />
<glyph unicode="h" horiz-adv-x="594" d="M72 0v700h116v-275q51 77 150 77q90 0 140 -55t50 -152v-295h-116v273q0 58 -28 90t-81 32q-52 0 -83.5 -37t-31.5 -100v-258h-116z" />
<glyph unicode="i" horiz-adv-x="260" d="M201 633q0 -29 -20.5 -50t-51.5 -21q-29 0 -50 21t-21 50q0 30 21 51t50 21q30 0 51 -21t21 -51zM72 490h116v-490h-116v490z" />
<glyph unicode="j" horiz-adv-x="263" d="M204 633q0 -29 -21 -50t-51 -21q-29 0 -50 21t-21 50q0 30 21 51t50 21q30 0 51 -21t21 -51zM191 490v-521q0 -93 -44.5 -142t-123.5 -49q-39 0 -66 12v101q18 -9 46 -9q34 0 53 23.5t19 67.5v517h116z" />
<glyph unicode="k" horiz-adv-x="536" d="M300 277l229 -277h-142l-175 217l-25 -23v-194h-115v700h115v-395l184 185h142z" />
<glyph unicode="l" horiz-adv-x="260" d="M188 0h-116v700h116v-700z" />
<glyph unicode="m" horiz-adv-x="884" d="M72 0v490h116v-65q44 77 140 77q106 0 149 -91q21 39 63.5 65t99.5 26q84 0 131 -54t47 -147v-301h-116v279q0 55 -24.5 86t-69.5 31q-47 0 -75.5 -35.5t-29.5 -95.5v-265h-116v275q0 57 -24.5 89t-69.5 32q-48 0 -76.5 -36.5t-28.5 -99.5v-260h-116z" />
<glyph unicode="n" horiz-adv-x="594" d="M72 0v490h116v-65q51 77 150 77q90 0 140 -55t50 -152v-295h-116v273q0 58 -28 90t-81 32q-52 0 -83.5 -37t-31.5 -100v-258h-116z" />
<glyph unicode="o" horiz-adv-x="602" d="M301 502q112 0 186.5 -74t74.5 -183t-74.5 -183t-186.5 -74t-186.5 74t-74.5 183t74.5 183t186.5 74zM301 396q-61 0 -103.5 -44t-42.5 -107t42.5 -107t103.5 -44t103.5 44t42.5 107t-42.5 107t-103.5 44z" />
<glyph unicode="p" horiz-adv-x="632" d="M187 420q27 38 71 60t95 22q102 0 170.5 -73.5t68.5 -183.5q0 -108 -69 -182.5t-170 -74.5q-110 0 -166 79v-275h-115v698h115v-70zM476 245q0 63 -42.5 107.5t-104.5 44.5t-104.5 -44.5t-42.5 -107.5t42.5 -107.5t104.5 -44.5t104.5 44.5t42.5 107.5z" />
<glyph unicode="q" horiz-adv-x="632" d="M560 -208h-115v278q-26 -38 -70 -60t-96 -22q-101 0 -170 74.5t-69 182.5t69 182.5t170 74.5q110 0 166 -79v67h115v-698zM156 245q0 -63 42.5 -107.5t104.5 -44.5t104.5 44.5t42.5 107.5t-42.5 107.5t-104.5 44.5t-104.5 -44.5t-42.5 -107.5z" />
<glyph unicode="r" horiz-adv-x="378" d="M354 379q-7 4 -30 4q-63 0 -100 -45.5t-37 -121.5v-216h-115v490h114v-84q18 43 58 68.5t88 25.5q19 0 22 -3v-118z" />
<glyph unicode="s" horiz-adv-x="429" d="M122 162q13 -34 39 -54.5t59 -20.5q29 0 47.5 13t18.5 38q0 20 -13 32t-43 21l-59 19q-125 41 -125 142q0 67 49 108.5t120 41.5q60 0 107.5 -30t70.5 -81l-93 -50q-32 65 -85 65q-25 0 -42 -12t-17 -33q0 -35 55 -53l58 -19q129 -43 129 -143q0 -72 -52.5 -115 t-127.5 -43q-68 0 -118.5 33.5t-71.5 91.5z" />
<glyph unicode="t" horiz-adv-x="324" d="M100 392h-83v98h83v145h116v-145h95v-98h-95v-392h-116v392z" />
<glyph unicode="u" d="M284 -12q-102 0 -160 59t-58 164v279h116v-272q0 -58 27 -90.5t75 -32.5t75 32.5t27 90.5v272h116v-279q0 -105 -58 -164t-160 -59z" />
<glyph unicode="v" horiz-adv-x="534" d="M137 490l131 -340l132 340h120l-202 -490h-102l-202 490h123z" />
<glyph unicode="w" horiz-adv-x="808" d="M404 331l-116 -331h-93l-178 490h119l112 -332l115 332h85l115 -332l112 332h116l-178 -490h-94z" />
<glyph unicode="x" horiz-adv-x="528" d="M143 0h-129l182 249l-174 241h133l110 -157l111 157h131l-175 -238l182 -252h-134l-118 168z" />
<glyph unicode="y" horiz-adv-x="542" d="M116 -222q-36 0 -68 14v99q21 -10 51 -10q31 0 52 17t38 58l21 51l-196 483h123l134 -353l138 353h119l-227 -549q-36 -87 -79.5 -125t-105.5 -38z" />
<glyph unicode="z" horiz-adv-x="469" d="M178 97h265v-97h-416v72l259 321h-243v97h396v-70z" />
<glyph unicode="{" horiz-adv-x="369" d="M108 564q-5 99 41.5 144t141.5 45q19 0 48 -3v-86q-30 2 -31 2q-48 0 -71.5 -24t-20.5 -81l6 -133q2 -53 -17 -83.5t-64 -49.5q45 -20 64 -51.5t17 -83.5l-6 -134q-2 -57 21 -80.5t71 -23.5h31v-85q-29 -3 -48 -3q-95 0 -141 45t-42 143l6 135q4 80 -82 93v87 q86 12 82 93z" />
<glyph unicode="|" horiz-adv-x="283" d="M87 765h109v-921h-109v921z" />
<glyph unicode="}" horiz-adv-x="369" d="M261 23q4 -99 -42 -144t-141 -45q-20 0 -48 3v86q10 -1 31 -1q48 0 71.5 23.5t20.5 80.5l-5 134q-2 51 16.5 82t63.5 51q-44 20 -63 52t-17 83l5 133q3 57 -20.5 81t-71.5 24q-20 0 -31 -1v85q28 3 48 3q95 0 141 -44.5t42 -143.5l-5 -135q-4 -80 82 -93v-86 q-86 -12 -82 -94z" />
<glyph unicode="~" horiz-adv-x="522" d="M42 198q0 66 38 103t96 37q43 0 72.5 -15t49 -29.5t40.5 -14.5q23 0 37 15t15 39h91q0 -66 -38 -103t-96 -37q-35 0 -61 9t-39 20.5t-29.5 20.5t-32.5 9q-23 0 -37 -15t-15 -39h-91z" />
<glyph unicode="&#xa1;" horiz-adv-x="280" d="M66 429q0 30 21 51.5t53 21.5t53 -21.5t21 -51.5t-21 -51.5t-53 -21.5t-53 21.5t-21 51.5zM202 -208h-124l10 491h104z" />
<glyph unicode="&#xa6;" horiz-adv-x="283" d="M87 765h109v-380h-109v380zM196 -156h-109v384h109v-384z" />
<glyph unicode="&#xa8;" horiz-adv-x="500" d="M216 633q0 -25 -18.5 -43.5t-44.5 -18.5q-25 0 -43 18t-18 44t18 44t43 18q27 0 45 -18.5t18 -43.5zM407 633q0 -25 -18 -43.5t-44 -18.5t-44 18t-18 44t18 44t44 18t44 -18.5t18 -43.5z" />
<glyph unicode="&#xa9;" horiz-adv-x="808" d="M762 350q0 -150 -105 -256t-253 -106t-253 106t-105 256t105 256.5t253 106.5t253 -106.5t105 -256.5zM669 350q0 114 -77 194.5t-188 80.5t-188 -80.5t-77 -194.5q0 -113 77.5 -193.5t187.5 -80.5t187.5 80.5t77.5 193.5zM234 349q0 79 54 132.5t137 53.5q53 0 94 -27 v-85q-44 29 -89 29t-74.5 -29.5t-29.5 -73.5q0 -42 30 -71.5t74 -29.5q41 0 90 29v-85q-44 -27 -95 -27q-83 0 -137 52.5t-54 131.5z" />
<glyph unicode="&#xaa;" horiz-adv-x="414" d="M35 399q0 103 137 120l95 12v12q0 26 -17.5 40.5t-47.5 14.5q-54 0 -72 -50l-81 24q14 48 55 76t98 28q74 0 114.5 -36.5t40.5 -102.5v-238h-87v44q-43 -53 -115 -53q-54 0 -87 30t-33 79zM125 402q0 -18 14 -28t37 -10q39 0 65 23t26 59v18l-76 -10q-66 -8 -66 -52z" />
<glyph unicode="&#xab;" horiz-adv-x="499" d="M173 466h109l-132 -202l133 -202h-111l-132 202zM365 466h109l-132 -202l133 -202h-111l-132 202z" />
<glyph unicode="&#xad;" horiz-adv-x="424" d="M367 317v-104h-310v104h310z" />
<glyph unicode="&#xae;" horiz-adv-x="810" d="M763 350q0 -150 -105 -256t-253 -106t-253 106t-105 256t105 256.5t253 106.5t253 -106.5t105 -256.5zM670 350q0 114 -77 194.5t-188 80.5t-188 -80.5t-77 -194.5q0 -113 77.5 -193.5t187.5 -80.5t187.5 80.5t77.5 193.5zM542 411q0 -68 -66 -100l88 -136h-99l-73 119 h-23v-119h-85v350h129q58 0 93.5 -30.5t35.5 -83.5zM455 409q0 20 -13.5 30.5t-34.5 10.5h-38v-83h38q21 0 34.5 11t13.5 31z" />
<glyph unicode="&#xaf;" horiz-adv-x="500" d="M106 667h288v-77h-288v77z" />
<glyph unicode="&#xb1;" horiz-adv-x="600" d="M252 480v172h96v-172h182v-95h-182v-170h-96v170h-182v95h182zM530 140v-95h-460v95h460z" />
<glyph unicode="&#xb2;" horiz-adv-x="342" d="M31 299v68l145 118q52 42 52 78q0 24 -14.5 38t-39.5 14q-26 0 -41.5 -17.5t-16.5 -46.5h-84q0 64 39.5 104t101.5 40t101.5 -35t39.5 -92q0 -38 -21 -70t-69 -71l-64 -51h157v-77h-286z" />
<glyph unicode="&#xb3;" horiz-adv-x="346" d="M170 533q23 0 38 12.5t15 31.5q0 18 -14 30t-35 12q-23 0 -37 -13.5t-15 -34.5h-82q0 55 38 89.5t97 34.5q57 0 94.5 -30.5t37.5 -77.5q0 -53 -49 -81q65 -26 65 -92q0 -54 -41.5 -88.5t-104.5 -34.5q-66 0 -106 36t-40 96h86q0 -24 17 -39t44 -15q26 0 42.5 14t16.5 35 q0 23 -18 36.5t-48 13.5h-19v65h18z" />
<glyph unicode="&#xb4;" horiz-adv-x="500" d="M255 718h127l-121 -143h-102z" />
<glyph unicode="&#xb7;" horiz-adv-x="267" d="M59 264q0 31 21.5 52.5t53.5 21.5t53.5 -21.5t21.5 -52.5t-21.5 -52.5t-53.5 -21.5t-53.5 21.5t-21.5 52.5z" />
<glyph unicode="&#xb8;" horiz-adv-x="500" d="M261 -47q38 0 63 -24t25 -61q0 -41 -28.5 -67t-72.5 -26q-41 0 -68.5 23.5t-32.5 59.5h70q7 -24 32 -24q15 0 24 9t9 23t-9 22.5t-23 8.5q-17 0 -29 -14l-59 32l36 85h68l-24 -50q4 3 19 3z" />
<glyph unicode="&#xb9;" horiz-adv-x="239" d="M93 607h-67v80h154v-388h-87v308z" />
<glyph unicode="&#xba;" horiz-adv-x="459" d="M230 676q81 0 138 -56t57 -137t-57 -137t-138 -56t-138.5 56t-57.5 137t57.5 137t138.5 56zM230 591q-44 0 -74 -31.5t-30 -76.5t30 -76.5t74 -31.5q43 0 73.5 31.5t30.5 76.5t-30.5 76.5t-73.5 31.5z" />
<glyph unicode="&#xbb;" horiz-adv-x="499" d="M134 62h-109l132 202l-133 202h111l132 -202zM326 62h-109l132 202l-133 202h111l132 -202z" />
<glyph unicode="&#xbf;" horiz-adv-x="530" d="M197 429q0 30 21 51.5t53 21.5t53 -21.5t21 -51.5t-21 -51.5t-53 -21.5t-53 21.5t-21 51.5zM45 -17q0 92 85 168q4 4 22.5 19t25.5 22t19 20t16.5 25t4.5 25v21h117v-31q0 -74 -96 -146q-75 -58 -75 -115q0 -42 30 -69.5t77 -27.5q48 0 79.5 32.5t32.5 82.5h116 q0 -99 -64.5 -163t-164.5 -64q-97 0 -161 57t-64 144z" />
<glyph unicode="&#xc0;" horiz-adv-x="692" d="M170 898h127l95 -143h-101zM682 0h-126l-71 177h-282l-70 -177h-123l285 700h102zM447 282l-103 260l-102 -260h205z" />
<glyph unicode="&#xc1;" horiz-adv-x="692" d="M397 898h127l-121 -143h-102zM682 0h-126l-71 177h-282l-70 -177h-123l285 700h102zM447 282l-103 260l-102 -260h205z" />
<glyph unicode="&#xc2;" horiz-adv-x="692" d="M302 898h90l110 -143h-106l-51 67l-50 -67h-104zM682 0h-126l-71 177h-282l-70 -177h-123l285 700h102zM447 282l-103 260l-102 -260h205z" />
<glyph unicode="&#xc3;" horiz-adv-x="692" d="M179 765q-1 59 27 89t74 30q37 0 74.5 -24t52.5 -24q37 0 37 44h72q1 -59 -27 -89t-74 -30q-38 0 -75 24t-52 24q-37 0 -37 -44h-72zM682 0h-126l-71 177h-282l-70 -177h-123l285 700h102zM447 282l-103 260l-102 -260h205z" />
<glyph unicode="&#xc7;" horiz-adv-x="643" d="M398 -47q38 0 63 -24t25 -61q0 -41 -28.5 -67t-72.5 -26q-41 0 -68.5 23.5t-32.5 59.5h70q7 -24 32 -24q15 0 24 9t9 23t-9 22.5t-23 8.5q-17 0 -29 -14l-59 32l34 80q-126 24 -206.5 122.5t-80.5 232.5q0 153 104.5 258t256.5 105q99 0 191 -57v-129q-90 69 -190 69 q-102 0 -170 -70.5t-68 -175.5q0 -103 68.5 -174t169.5 -71q96 0 192 67v-129q-90 -55 -194 -55h-9l-18 -38q4 3 19 3z" />
<glyph unicode="&#xc9;" horiz-adv-x="535" d="M313 898h127l-121 -143h-102zM482 700v-109h-280v-178h258v-106h-258v-198h282v-109h-402v700h400z" />
<glyph unicode="&#xca;" horiz-adv-x="535" d="M238 898h90l110 -143h-106l-51 67l-50 -67h-104zM482 700v-109h-280v-178h258v-106h-258v-198h282v-109h-402v700h400z" />
<glyph unicode="&#xcc;" horiz-adv-x="284" d="M-28 898h127l95 -143h-101zM202 0h-120v700h120v-700z" />
<glyph unicode="&#xcd;" horiz-adv-x="284" d="M186 898h127l-121 -143h-102zM202 0h-120v700h120v-700z" />
<glyph unicode="&#xce;" horiz-adv-x="284" d="M97 898h90l110 -143h-106l-51 67l-50 -67h-104zM202 0h-120v700h120v-700z" />
<glyph unicode="&#xd1;" horiz-adv-x="774" d="M236 765q-1 59 27 89t74 30q37 0 74.5 -24t52.5 -24q37 0 37 44h72q1 -59 -27 -89t-74 -30q-38 0 -75 24t-52 24q-37 0 -37 -44h-72zM692 0h-117l-377 514v-514h-116v700h122l372 -513v513h116v-700z" />
<glyph unicode="&#xd2;" horiz-adv-x="818" d="M242 898h127l95 -143h-101zM46 350q0 151 106 257t257 106t257 -106t106 -257q0 -150 -106 -256t-257 -106t-257 106t-106 256zM169 350q0 -102 69.5 -174t170.5 -72t170.5 72t69.5 174q0 103 -69.5 175t-170.5 72t-170.5 -72t-69.5 -175z" />
<glyph unicode="&#xd3;" horiz-adv-x="818" d="M450 898h127l-121 -143h-102zM46 350q0 151 106 257t257 106t257 -106t106 -257q0 -150 -106 -256t-257 -106t-257 106t-106 256zM169 350q0 -102 69.5 -174t170.5 -72t170.5 72t69.5 174q0 103 -69.5 175t-170.5 72t-170.5 -72t-69.5 -175z" />
<glyph unicode="&#xd4;" horiz-adv-x="818" d="M364 898h90l110 -143h-106l-51 67l-50 -67h-104zM46 350q0 151 106 257t257 106t257 -106t106 -257q0 -150 -106 -256t-257 -106t-257 106t-106 256zM169 350q0 -102 69.5 -174t170.5 -72t170.5 72t69.5 174q0 103 -69.5 175t-170.5 72t-170.5 -72t-69.5 -175z" />
<glyph unicode="&#xd5;" horiz-adv-x="818" d="M242 765q-1 59 27 89t74 30q37 0 74.5 -24t52.5 -24q37 0 37 44h72q1 -59 -27 -89t-74 -30q-38 0 -75 24t-52 24q-37 0 -37 -44h-72zM46 350q0 151 106 257t257 106t257 -106t106 -257q0 -150 -106 -256t-257 -106t-257 106t-106 256zM169 350q0 -102 69.5 -174 t170.5 -72t170.5 72t69.5 174q0 103 -69.5 175t-170.5 72t-170.5 -72t-69.5 -175z" />
<glyph unicode="&#xd7;" horiz-adv-x="600" d="M300 400l165 165l68 -68l-165 -165l165 -164l-68 -68l-165 164l-165 -164l-68 68l165 164l-165 165l68 68z" />
<glyph unicode="&#xd9;" horiz-adv-x="694" d="M190 898h127l95 -143h-101zM347 -12q-128 0 -201 79t-73 211v422h120v-417q0 -83 40 -131t114 -48t114 48t40 131v417h120v-422q0 -132 -73 -211t-201 -79z" />
<glyph unicode="&#xda;" horiz-adv-x="694" d="M375 898h127l-121 -143h-102zM347 -12q-128 0 -201 79t-73 211v422h120v-417q0 -83 40 -131t114 -48t114 48t40 131v417h120v-422q0 -132 -73 -211t-201 -79z" />
<glyph unicode="&#xdb;" horiz-adv-x="694" d="M303 898h90l110 -143h-106l-51 67l-50 -67h-104zM347 -12q-128 0 -201 79t-73 211v422h120v-417q0 -83 40 -131t114 -48t114 48t40 131v417h120v-422q0 -132 -73 -211t-201 -79z" />
<glyph unicode="&#xdc;" horiz-adv-x="694" d="M314 827q0 -26 -18.5 -44t-44.5 -18q-25 0 -43 18t-18 44q0 25 18 43t43 18q27 0 45 -18t18 -43zM505 827q0 -26 -18 -44t-44 -18t-44 18t-18 44q0 25 18 43t44 18t44 -18.5t18 -42.5zM347 -12q-128 0 -201 79t-73 211v422h120v-417q0 -83 40 -131t114 -48t114 48t40 131 v417h120v-422q0 -132 -73 -211t-201 -79z" />
<glyph unicode="&#xe0;" horiz-adv-x="527" d="M107 718h127l95 -143h-101zM41 130q0 134 174 159l133 17v21q0 37 -23.5 58.5t-63.5 21.5q-74 0 -97 -74l-106 27q18 66 73 104t130 38q96 0 148 -48t52 -135v-319h-108l-1 60q-51 -72 -153 -72q-70 0 -114 40t-44 102zM156 138q0 -26 19.5 -41.5t50.5 -15.5 q54 0 88.5 31t34.5 80v28l-111 -15q-82 -10 -82 -67z" />
<glyph unicode="&#xe1;" horiz-adv-x="527" d="M302 718h127l-121 -143h-102zM41 130q0 134 174 159l133 17v21q0 37 -23.5 58.5t-63.5 21.5q-74 0 -97 -74l-106 27q18 66 73 104t130 38q96 0 148 -48t52 -135v-319h-108l-1 60q-51 -72 -153 -72q-70 0 -114 40t-44 102zM156 138q0 -26 19.5 -41.5t50.5 -15.5 q54 0 88.5 31t34.5 80v28l-111 -15q-82 -10 -82 -67z" />
<glyph unicode="&#xe2;" horiz-adv-x="527" d="M220 718h90l110 -143h-106l-51 68l-50 -68h-104zM41 130q0 134 174 159l133 17v21q0 37 -23.5 58.5t-63.5 21.5q-74 0 -97 -74l-106 27q18 66 73 104t130 38q96 0 148 -48t52 -135v-319h-108l-1 60q-51 -72 -153 -72q-70 0 -114 40t-44 102zM156 138q0 -26 19.5 -41.5 t50.5 -15.5q54 0 88.5 31t34.5 80v28l-111 -15q-82 -10 -82 -67z" />
<glyph unicode="&#xe3;" horiz-adv-x="527" d="M97 583q-1 59 27 89t74 30q37 0 74.5 -24t52.5 -24q37 0 37 44h72q1 -59 -27 -89t-74 -30q-38 0 -75 24t-52 24q-37 0 -37 -44h-72zM41 130q0 134 174 159l133 17v21q0 37 -23.5 58.5t-63.5 21.5q-74 0 -97 -74l-106 27q18 66 73 104t130 38q96 0 148 -48t52 -135v-319 h-108l-1 60q-51 -72 -153 -72q-70 0 -114 40t-44 102zM156 138q0 -26 19.5 -41.5t50.5 -15.5q54 0 88.5 31t34.5 80v28l-111 -15q-82 -10 -82 -67z" />
<glyph unicode="&#xe4;" horiz-adv-x="527" d="M229 633q0 -25 -18.5 -43.5t-44.5 -18.5q-25 0 -43 18t-18 44t18 44t43 18q27 0 45 -18.5t18 -43.5zM420 633q0 -25 -18 -43.5t-44 -18.5t-44 18t-18 44t18 44t44 18t44 -18.5t18 -43.5zM41 130q0 134 174 159l133 17v21q0 37 -23.5 58.5t-63.5 21.5q-74 0 -97 -74 l-106 27q18 66 73 104t130 38q96 0 148 -48t52 -135v-319h-108l-1 60q-51 -72 -153 -72q-70 0 -114 40t-44 102zM156 138q0 -26 19.5 -41.5t50.5 -15.5q54 0 88.5 31t34.5 80v28l-111 -15q-82 -10 -82 -67z" />
<glyph unicode="&#xe7;" horiz-adv-x="472" d="M292 -47q38 0 63 -24t25 -61q0 -41 -28.5 -67t-72.5 -26q-41 0 -68.5 23.5t-32.5 59.5h70q7 -24 32 -24q15 0 24 9t9 23t-9 22.5t-23 8.5q-17 0 -29 -14l-59 32l34 82q-85 20 -136 87.5t-51 160.5q0 111 73 184t186 73q72 0 131 -35v-115q-59 44 -121 44 q-65 0 -108.5 -43.5t-43.5 -107.5t43 -107.5t109 -43.5q59 0 123 44v-115q-62 -35 -134 -35h-7l-18 -38q4 3 19 3z" />
<glyph unicode="&#xe9;" d="M322 718h127l-121 -143h-102zM516 115q-32 -59 -88.5 -93t-132.5 -34q-112 0 -183.5 72t-71.5 185q0 110 71.5 183.5t177.5 73.5q107 0 175.5 -73t68.5 -184q0 -21 -1 -35h-377q4 -53 45 -88.5t96 -35.5q45 0 73 19t52 55zM418 294q-6 49 -42 81t-89 32 q-50 0 -87.5 -34.5t-43.5 -78.5h262z" />
<glyph unicode="&#xea;" d="M245 718h90l110 -143h-106l-51 68l-50 -68h-104zM516 115q-32 -59 -88.5 -93t-132.5 -34q-112 0 -183.5 72t-71.5 185q0 110 71.5 183.5t177.5 73.5q107 0 175.5 -73t68.5 -184q0 -21 -1 -35h-377q4 -53 45 -88.5t96 -35.5q45 0 73 19t52 55zM418 294q-6 49 -42 81 t-89 32q-50 0 -87.5 -34.5t-43.5 -78.5h262z" />
<glyph unicode="&#xec;" horiz-adv-x="260" d="M-41 718h127l95 -143h-101zM188 0h-116v490h116v-490z" />
<glyph unicode="&#xed;" horiz-adv-x="260" d="M174 718h127l-121 -143h-102zM188 0h-116v490h116v-490z" />
<glyph unicode="&#xee;" horiz-adv-x="260" d="M85 718h90l110 -143h-106l-51 68l-50 -68h-104zM188 0h-116v490h116v-490z" />
<glyph unicode="&#xf1;" horiz-adv-x="594" d="M136 583q-1 59 27 89t74 30q37 0 74.5 -24t52.5 -24q37 0 37 44h72q1 -59 -27 -89t-74 -30q-38 0 -75 24t-52 24q-37 0 -37 -44h-72zM72 0v490h116v-65q51 77 150 77q90 0 140 -55t50 -152v-295h-116v273q0 58 -28 90t-81 32q-52 0 -83.5 -37t-31.5 -100v-258h-116z" />
<glyph unicode="&#xf2;" horiz-adv-x="602" d="M133 718h127l95 -143h-101zM301 502q112 0 186.5 -74t74.5 -183t-74.5 -183t-186.5 -74t-186.5 74t-74.5 183t74.5 183t186.5 74zM301 396q-61 0 -103.5 -44t-42.5 -107t42.5 -107t103.5 -44t103.5 44t42.5 107t-42.5 107t-103.5 44z" />
<glyph unicode="&#xf3;" horiz-adv-x="602" d="M342 718h127l-121 -143h-102zM301 502q112 0 186.5 -74t74.5 -183t-74.5 -183t-186.5 -74t-186.5 74t-74.5 183t74.5 183t186.5 74zM301 396q-61 0 -103.5 -44t-42.5 -107t42.5 -107t103.5 -44t103.5 44t42.5 107t-42.5 107t-103.5 44z" />
<glyph unicode="&#xf4;" horiz-adv-x="602" d="M256 718h90l110 -143h-106l-51 68l-50 -68h-104zM301 502q112 0 186.5 -74t74.5 -183t-74.5 -183t-186.5 -74t-186.5 74t-74.5 183t74.5 183t186.5 74zM301 396q-61 0 -103.5 -44t-42.5 -107t42.5 -107t103.5 -44t103.5 44t42.5 107t-42.5 107t-103.5 44z" />
<glyph unicode="&#xf5;" horiz-adv-x="602" d="M133 583q-1 59 27 89t74 30q37 0 74.5 -24t52.5 -24q37 0 37 44h72q1 -59 -27 -89t-74 -30q-38 0 -75 24t-52 24q-37 0 -37 -44h-72zM301 502q112 0 186.5 -74t74.5 -183t-74.5 -183t-186.5 -74t-186.5 74t-74.5 183t74.5 183t186.5 74zM301 396q-61 0 -103.5 -44 t-42.5 -107t42.5 -107t103.5 -44t103.5 44t42.5 107t-42.5 107t-103.5 44z" />
<glyph unicode="&#xf6;" horiz-adv-x="602" d="M267 633q0 -25 -18.5 -43.5t-44.5 -18.5q-25 0 -43 18t-18 44t18 44t43 18q27 0 45 -18.5t18 -43.5zM458 633q0 -25 -18 -43.5t-44 -18.5t-44 18t-18 44t18 44t44 18t44 -18.5t18 -43.5zM301 502q112 0 186.5 -74t74.5 -183t-74.5 -183t-186.5 -74t-186.5 74t-74.5 183 t74.5 183t186.5 74zM301 396q-61 0 -103.5 -44t-42.5 -107t42.5 -107t103.5 -44t103.5 44t42.5 107t-42.5 107t-103.5 44z" />
<glyph unicode="&#xf7;" horiz-adv-x="600" d="M232 516q0 28 19.5 47.5t48.5 19.5t48.5 -19.5t19.5 -47.5t-19.5 -47.5t-48.5 -19.5t-48.5 19.5t-19.5 47.5zM70 382h460v-97h-460v97zM232 151q0 28 19.5 47.5t48.5 19.5t48.5 -19.5t19.5 -47.5t-19.5 -47.5t-48.5 -19.5t-48.5 19.5t-19.5 47.5z" />
<glyph unicode="&#xf9;" d="M123 718h127l95 -143h-101zM284 -12q-102 0 -160 59t-58 164v279h116v-272q0 -58 27 -90.5t75 -32.5t75 32.5t27 90.5v272h116v-279q0 -105 -58 -164t-160 -59z" />
<glyph unicode="&#xfa;" d="M316 718h127l-121 -143h-102zM284 -12q-102 0 -160 59t-58 164v279h116v-272q0 -58 27 -90.5t75 -32.5t75 32.5t27 90.5v272h116v-279q0 -105 -58 -164t-160 -59z" />
<glyph unicode="&#xfb;" d="M239 718h90l110 -143h-106l-51 68l-50 -68h-104zM284 -12q-102 0 -160 59t-58 164v279h116v-272q0 -58 27 -90.5t75 -32.5t75 32.5t27 90.5v272h116v-279q0 -105 -58 -164t-160 -59z" />
<glyph unicode="&#xfc;" d="M250 633q0 -25 -18.5 -43.5t-44.5 -18.5q-25 0 -43 18t-18 44t18 44t43 18q27 0 45 -18.5t18 -43.5zM441 633q0 -25 -18 -43.5t-44 -18.5t-44 18t-18 44t18 44t44 18t44 -18.5t18 -43.5zM284 -12q-102 0 -160 59t-58 164v279h116v-272q0 -58 27 -90.5t75 -32.5t75 32.5 t27 90.5v272h116v-279q0 -105 -58 -164t-160 -59z" />
<glyph unicode="&#x2c6;" horiz-adv-x="500" d="M205 718h90l110 -143h-106l-51 68l-50 -68h-104z" />
<glyph unicode="&#x2dc;" horiz-adv-x="500" d="M81 583q-1 59 27 89t74 30q37 0 74.5 -24t52.5 -24q37 0 37 44h72q1 -59 -27 -89t-74 -30q-38 0 -75 24t-52 24q-37 0 -37 -44h-72z" />
<glyph unicode="&#x2000;" horiz-adv-x="449" />
<glyph unicode="&#x2001;" horiz-adv-x="898" />
<glyph unicode="&#x2002;" horiz-adv-x="449" />
<glyph unicode="&#x2003;" horiz-adv-x="898" />
<glyph unicode="&#x2004;" horiz-adv-x="299" />
<glyph unicode="&#x2005;" horiz-adv-x="224" />
<glyph unicode="&#x2006;" horiz-adv-x="149" />
<glyph unicode="&#x2007;" horiz-adv-x="149" />
<glyph unicode="&#x2008;" horiz-adv-x="112" />
<glyph unicode="&#x2009;" horiz-adv-x="179" />
<glyph unicode="&#x200a;" horiz-adv-x="49" />
<glyph unicode="&#x2010;" horiz-adv-x="424" d="M367 317v-104h-310v104h310z" />
<glyph unicode="&#x2011;" horiz-adv-x="424" d="M367 317v-104h-310v104h310z" />
<glyph unicode="&#x2012;" horiz-adv-x="424" d="M367 317v-104h-310v104h310z" />
<glyph unicode="&#x2013;" horiz-adv-x="565" d="M508 314v-98h-451v98h451z" />
<glyph unicode="&#x2014;" horiz-adv-x="865" d="M808 314v-98h-751v98h751z" />
<glyph unicode="&#x2018;" horiz-adv-x="216" d="M120 598h1q24 0 41 -17.5t17 -42.5q0 -30 -20.5 -50t-50.5 -20t-50.5 20t-20.5 50q0 25 20 67l47 95h69z" />
<glyph unicode="&#x2019;" horiz-adv-x="216" d="M96 583h-1q-24 0 -41 17.5t-17 42.5q0 30 20.5 50t50.5 20t50.5 -20t20.5 -50q0 -25 -20 -67l-47 -95h-69z" />
<glyph unicode="&#x201a;" horiz-adv-x="216" d="M96 -1h-1q-24 0 -41 17.5t-17 42.5q0 30 20.5 50t50.5 20t50.5 -20t20.5 -50q0 -25 -20 -67l-47 -95h-69z" />
<glyph unicode="&#x201c;" horiz-adv-x="398" d="M120 598h1q24 0 41 -17.5t17 -42.5q0 -30 -20.5 -50t-50.5 -20t-50.5 20t-20.5 50q0 25 20 67l47 95h69zM302 598h1q24 0 41 -17.5t17 -42.5q0 -30 -20.5 -50t-50.5 -20t-50.5 20t-20.5 50q0 25 20 67l47 95h69z" />
<glyph unicode="&#x201d;" horiz-adv-x="398" d="M96 583h-1q-24 0 -41 17.5t-17 42.5q0 30 20.5 50t50.5 20t50.5 -20t20.5 -50q0 -25 -20 -67l-47 -95h-69zM278 583h-1q-24 0 -41 17.5t-17 42.5q0 30 20.5 50t50.5 20t50.5 -20t20.5 -50q0 -25 -20 -67l-47 -95h-69z" />
<glyph unicode="&#x201e;" horiz-adv-x="398" d="M96 -1h-1q-24 0 -41 17.5t-17 42.5q0 30 20.5 50t50.5 20t50.5 -20t20.5 -50q0 -25 -20 -67l-47 -95h-69zM278 -1h-1q-24 0 -41 17.5t-17 42.5q0 30 20.5 50t50.5 20t50.5 -20t20.5 -50q0 -25 -20 -67l-47 -95h-69z" />
<glyph unicode="&#x2022;" horiz-adv-x="318" d="M268 265q0 -44 -32 -76t-77 -32t-77 32t-32 76t32 76t77 32t77 -32t32 -76z" />
<glyph unicode="&#x2026;" horiz-adv-x="860" d="M59 63q0 31 21.5 52.5t53.5 21.5t53.5 -21.5t21.5 -52.5t-21.5 -52.5t-53.5 -21.5t-53.5 21.5t-21.5 52.5zM355 63q0 31 21.5 52.5t53.5 21.5t53.5 -21.5t21.5 -52.5t-21.5 -52.5t-53.5 -21.5t-53.5 21.5t-21.5 52.5zM651 63q0 31 21.5 52.5t53.5 21.5t53.5 -21.5 t21.5 -52.5t-21.5 -52.5t-53.5 -21.5t-53.5 21.5t-21.5 52.5z" />
<glyph unicode="&#x202f;" horiz-adv-x="179" />
<glyph unicode="&#x2039;" horiz-adv-x="307" d="M173 466h109l-132 -202l133 -202h-111l-132 202z" />
<glyph unicode="&#x203a;" horiz-adv-x="307" d="M134 62h-109l132 202l-133 202h111l132 -202z" />
<glyph unicode="&#x205f;" horiz-adv-x="224" />
<glyph unicode="&#x20ac;" horiz-adv-x="602" d="M226 240q24 -60 74 -95.5t113 -35.5q73 0 146 42v-114q-68 -36 -152 -36q-110 0 -192.5 65t-112.5 174h-85v77h73q-1 7 -1 26q0 20 1 27h-73v78h86q30 106 113 172t191 66q84 0 151 -35v-116q-73 44 -145 44q-62 0 -112 -35.5t-75 -95.5h218v-78h-237q-1 -7 -1 -27t1 -26 h238v-77h-219z" />
<glyph unicode="&#x2122;" horiz-adv-x="805" d="M118 358v266h-97v76h273v-76h-97v-266h-79zM750 358h-77v214l-96 -214h-51l-95 213v-213h-77v342h96l104 -231l103 231h93v-342z" />
<glyph unicode="&#x25fc;" horiz-adv-x="490" d="M0 490h490v-490h-490v490z" />
</font>
</defs>
</svg>
