<svg class="icon-list" viewBox="0 0 60.123 60.123">
  <defs/>
  <path fill="{{include.color}}" d="M57.124 51.893H16.92c-1.657 0-3-1.343-3-3s1.343-3 3-3h40.203c1.657 0 3 1.343 3 3s-1.342 3-2.999 3zM57.124 33.062H16.92c-1.657 0-3-1.343-3-3s1.343-3 3-3h40.203c1.657 0 3 1.343 3 3 .001 1.657-1.342 3-2.999 3zM57.124 14.231H16.92c-1.657 0-3-1.343-3-3s1.343-3 3-3h40.203c1.657 0 3 1.343 3 3s-1.342 3-2.999 3z"/>
  <circle fill="{{include.color}}" cx="4.029" cy="11.463" r="4.029"/>
  <circle fill="{{include.color}}" cx="4.029" cy="30.062" r="4.029"/>
  <circle fill="{{include.color}}" cx="4.029" cy="48.661" r="4.029"/>
</svg>